<svg width="980" height="760" viewBox="0 0 980 760" fill="none" xmlns="http://www.w3.org/2000/svg" role="img" aria-labelledby="title desc">
  <title id="title">Сетевое оборудование на рабочем столе</title>
  <desc id="desc">Роутер, Mesh-точки, кабель и условные линии стабильного Wi-Fi подключения.</desc>
  <rect width="980" height="760" rx="0" fill="#0F263F"/>
  <path d="M84 186C198 42 418 38 567 120C730 210 871 198 935 98V760H84V186Z" fill="#143250"/>
  <path d="M0 512C138 450 253 470 364 532C518 618 675 624 980 502V760H0V512Z" fill="#0B1B2D"/>
  <g opacity=".46">
    <circle cx="772" cy="198" r="148" stroke="#1A84C7" stroke-width="2"/>
    <circle cx="772" cy="198" r="94" stroke="#1A84C7" stroke-width="2"/>
    <circle cx="772" cy="198" r="42" stroke="#1A84C7" stroke-width="2"/>
  </g>
  <g filter="url(#shadow)">
    <rect x="238" y="418" width="478" height="126" rx="22" fill="#F6FAFC"/>
    <rect x="264" y="444" width="426" height="74" rx="16" fill="#DCE8F1"/>
    <rect x="300" y="466" width="86" height="12" rx="6" fill="#0EAE81"/>
    <rect x="406" y="466" width="64" height="12" rx="6" fill="#1A84C7"/>
    <rect x="490" y="466" width="118" height="12" rx="6" fill="#8FA2B7"/>
    <circle cx="626" cy="472" r="7" fill="#0EAE81"/>
    <circle cx="650" cy="472" r="7" fill="#1A84C7"/>
    <circle cx="674" cy="472" r="7" fill="#0F263F"/>
  </g>
  <path d="M314 419V342" stroke="#F6FAFC" stroke-width="16" stroke-linecap="round"/>
  <path d="M640 419V342" stroke="#F6FAFC" stroke-width="16" stroke-linecap="round"/>
  <path d="M314 342C342 304 389 280 443 280C497 280 544 304 572 342" stroke="#0EAE81" stroke-width="12" stroke-linecap="round"/>
  <path d="M352 366C374 343 406 330 443 330C480 330 512 343 534 366" stroke="#73D5C0" stroke-width="10" stroke-linecap="round"/>
  <g filter="url(#shadow)">
    <rect x="104" y="278" width="138" height="188" rx="22" fill="#F6FAFC"/>
    <rect x="128" y="304" width="90" height="12" rx="6" fill="#1A84C7"/>
    <rect x="128" y="334" width="58" height="12" rx="6" fill="#8FA2B7"/>
    <circle cx="174" cy="398" r="38" fill="#E8F7F2"/>
    <path d="M154 398C164 384 184 384 194 398" stroke="#0EAE81" stroke-width="8" stroke-linecap="round"/>
    <circle cx="174" cy="414" r="6" fill="#0EAE81"/>
  </g>
  <g filter="url(#shadow)">
    <rect x="742" y="330" width="128" height="166" rx="22" fill="#F6FAFC"/>
    <rect x="766" y="358" width="80" height="10" rx="5" fill="#8FA2B7"/>
    <rect x="766" y="382" width="52" height="10" rx="5" fill="#1A84C7"/>
    <circle cx="806" cy="434" r="30" fill="#EAF3FA"/>
    <path d="M790 434C798 423 814 423 822 434" stroke="#1A84C7" stroke-width="7" stroke-linecap="round"/>
    <circle cx="806" cy="447" r="5" fill="#1A84C7"/>
  </g>
  <path d="M242 420C304 374 362 374 424 420" stroke="#1A84C7" stroke-width="5" stroke-linecap="round" stroke-dasharray="2 15"/>
  <path d="M716 458C760 512 826 520 894 476" stroke="#0EAE81" stroke-width="5" stroke-linecap="round" stroke-dasharray="2 15"/>
  <path d="M187 466C192 560 291 612 414 560C509 520 574 552 620 626" stroke="#73D5C0" stroke-width="8" stroke-linecap="round"/>
  <path d="M706 520C736 585 802 620 884 598" stroke="#1A84C7" stroke-width="8" stroke-linecap="round"/>
  <circle cx="620" cy="626" r="15" fill="#0EAE81"/>
  <circle cx="884" cy="598" r="15" fill="#1A84C7"/>
  <defs>
    <filter id="shadow" x="54" y="232" width="866" height="358" filterUnits="userSpaceOnUse" color-interpolation-filters="sRGB">
      <feDropShadow dx="0" dy="26" stdDeviation="24" flood-color="#000000" flood-opacity=".28"/>
    </filter>
  </defs>
</svg>

